<svg version="1.1" xmlns="http://www.w3.org/2000/svg" style="display: block;" viewBox="0 0 2048 2048" width="512" height="512" preserveAspectRatio="none">
<defs>
	<linearGradient id="Gradient1" gradientUnits="userSpaceOnUse" x1="1274.54" y1="977.851" x2="514.468" y2="503.932">
		<stop class="stop0" offset="0" stop-opacity="1" stop-color="rgb(144,1,14)"/>
		<stop class="stop1" offset="1" stop-opacity="1" stop-color="rgb(190,0,14)"/>
	</linearGradient>
</defs>
<path transform="translate(0,0)" fill="rgb(0,0,0)" d="M 233.41 0 L 1810.5 0 C 1817.81 2.8687 1830.76 4.03579 1838.85 5.3403 C 1848.78 7.01453 1858.59 9.33842 1868.22 12.297 C 1949.02 37.1989 2019.84 105.004 2040.92 187.816 C 2043.21 196.797 2044.66 210.012 2048 218.219 L 2048 1543.78 C 2044.76 1551.06 2043.61 1560.28 2041.83 1568.2 C 2024.67 1644.8 1956.39 1710.1 1883.45 1735.48 C 1824.89 1755.42 1752.13 1750.59 1690.5 1750.48 L 1492.04 1750.52 L 1355.5 1750.31 C 1340.05 1750.28 1298.78 1751.02 1286.3 1749.08 C 1296.24 1773.33 1313.29 1803.53 1324.57 1828.1 C 1328.34 1836.31 1344.91 1870.71 1349.12 1877.39 C 1422.93 1880.01 1501.89 1876.32 1576.69 1877.99 C 1577.95 1932.22 1578.61 1993.55 1577.5 2048 L 469.472 2048 C 470.41 2036.27 469.553 2007.58 469.581 1995 L 469.938 1878.49 C 543.15 1876.17 621.251 1878.73 695.188 1877.88 C 716.329 1842.98 732.749 1802.5 752.378 1766.48 C 755.14 1761.41 757.669 1755.5 759.644 1750.08 C 737.042 1751.45 702.358 1750.33 678.377 1750.4 L 500.598 1750.44 L 340.995 1750.39 C 308.963 1750.48 267.659 1752.04 236.055 1749.6 C 210.431 1747.79 185.173 1742.5 160.978 1733.86 C 94.2872 1709.19 41.2696 1657.27 15.2084 1591.1 C 12.0697 1583.21 9.64321 1575.67 7.28964 1567.52 C 4.91647 1559.31 3.80605 1545.26 0 1537.93 L 0 222.275 C 2.58575 218.085 6.62508 192.602 8.80875 184.799 C 13.2574 169.046 19.1441 153.734 26.3945 139.057 C 58.6789 76.3204 115.25 29.5446 182.935 9.62163 C 198.59 4.93005 220.486 4.82598 233.41 0 z M 169.41 1323.21 C 209.737 1325.44 261.429 1324.46 302.516 1324.56 L 582.015 1324.23 L 1601.5 1324.04 L 1873.98 1324.38 L 1873.81 574.999 L 1874.03 340.861 L 1873.92 267.243 C 1873.83 235.899 1877.68 214.57 1853.1 190.498 C 1834.44 172.223 1821.26 169.88 1795.59 169.931 L 820.237 170.554 L 575.693 170.704 C 532.889 170.651 487.74 169.819 445.095 170.5 L 299.367 170.581 C 287.416 170.584 275.313 170.364 263.413 170.537 C 241.593 170.873 219.225 168.465 201.016 182.836 C 187.06 193.85 172.997 210.844 171.41 229.249 C 169.21 254.76 170.288 282.294 170.295 308.054 L 170.09 460.205 L 170.096 1055.32 L 170.099 1233.42 L 170.158 1288.14 C 170.164 1298.62 170.564 1313.12 169.41 1323.21 z"/>
<path transform="translate(0,0)" fill="url(#Gradient1)" d="M 646.683 298.466 C 675.014 296.838 707.676 297.631 736.349 297.608 L 885.681 297.515 L 1001.11 297.72 C 1032 297.822 1061.61 297.326 1092.44 300.939 C 1226.51 316.65 1332.49 388.885 1383.32 516.311 C 1420.34 610.95 1418.65 716.354 1378.61 809.756 C 1342.78 892.674 1274.66 955.308 1191.24 988.295 C 1129.61 1015.18 1048.33 1010.16 981.639 1010.11 C 939.524 1010.26 897.409 1010.12 855.295 1009.7 C 856.701 1032.57 855.101 1056.45 856.193 1079.35 C 858.017 1117.61 857.863 1154.7 855.964 1192.99 L 709.163 1193.18 C 687.892 1193.12 666.042 1194.08 644.832 1192.78 C 643.538 1192.7 641.092 1193.01 640.337 1191.87 C 637.546 1187.62 638.921 1022.85 638.872 999.194 L 640.322 479.41 C 640.326 444.772 640.405 409.983 639.987 375.382 C 639.83 362.455 637.44 311.18 639.608 300.601 C 642.356 298.289 642.374 299.003 646.683 298.466 z M 855.788 793.139 C 908.522 790.978 965.978 794.267 1019.07 792.911 C 1041.2 792.345 1070.07 794.865 1091.02 789.973 C 1114.78 784.475 1136.53 772.424 1153.79 755.188 C 1162.88 745.352 1169.47 737.608 1175.84 725.766 C 1214.84 653.244 1182.39 547.093 1097.98 525.94 C 1079.26 521.248 1051.14 522.968 1031.23 523.034 L 913.565 523.09 C 899.241 523.118 868.576 524.441 855.786 523.145 L 855.808 710.92 C 855.797 735.307 856.992 769.781 855.788 793.139 z"/>
</svg>